<svg width="151" height="26" viewBox="0 0 151 26" fill="none" xmlns="http://www.w3.org/2000/svg">
<g clip-path="url(#clip0_6084_8996)">
<path d="M17.1119 21.7574C17.4735 21.7574 17.7836 21.6532 18.0936 21.4968L21.7105 19.4117C22.4339 18.9947 23.2607 18.8383 24.1391 18.8904C28.5311 19.4117 31.5796 20.2457 32.5097 20.5064C32.7164 20.5585 32.9231 20.5064 33.0264 20.35C33.1814 20.1415 33.3364 19.8808 33.4915 19.4117C33.6465 18.9947 33.6465 18.6298 33.6465 18.4213C33.6465 18.2128 33.4915 18.0564 33.2848 18.0043C31.8897 17.5872 25.5858 15.867 17.1635 15.867C8.7412 15.867 2.38571 17.5351 0.990601 17.9521C0.783918 18.0043 0.628906 18.2128 0.628906 18.4213C0.628906 18.6298 0.628906 18.9947 0.783918 19.4117C0.93893 19.8287 1.09394 20.1415 1.24895 20.35C1.3523 20.5064 1.55898 20.5585 1.76566 20.5064C2.69573 20.2457 5.7443 19.4117 10.1363 18.8904C10.963 18.7862 11.8414 18.9947 12.5648 19.4117L16.1818 21.4968C16.4401 21.6532 16.8018 21.7574 17.1119 21.7574ZM11.1181 9.92447C11.3247 10.2894 11.6348 10.4979 11.9965 10.6021C12.3582 10.7064 12.7198 10.6543 13.0815 10.4457C13.4432 10.2372 13.6499 9.92447 13.7533 9.55957C13.8566 9.19468 13.8049 8.82979 13.5982 8.46489L10.343 2.83511C10.2397 2.6266 10.033 2.57447 9.82629 2.6266C9.56793 2.6266 9.20624 2.78298 8.79287 3.04362C8.37951 3.30426 8.06948 3.56489 7.91447 3.7734C7.81113 3.87766 7.75946 4.08617 7.8628 4.29468L11.1181 9.92447ZM8.12116 13.9904C8.48285 14.1989 8.84455 14.1989 9.20624 14.1468C9.56793 14.0426 9.87796 13.834 10.0846 13.4691C10.2913 13.1043 10.2913 12.7394 10.2397 12.3745C10.188 12.0096 9.92963 11.6968 9.56793 11.4883L3.93583 8.20426C3.72915 8.1 3.52246 8.15213 3.36745 8.25638C3.16077 8.41277 2.90242 8.72553 2.64406 9.14255C2.38571 9.55958 2.28237 9.92447 2.2307 10.1851C2.2307 10.3936 2.28237 10.6021 2.43738 10.7064L8.12116 13.9904ZM18.5586 7.94362C18.5586 8.36064 18.4036 8.72553 18.1453 8.98617C17.8869 9.24681 17.5252 9.40319 17.1119 9.40319C16.6985 9.40319 16.3368 9.24681 16.0784 8.98617C15.8201 8.72553 15.6651 8.36064 15.6651 7.94362V1.37553C15.6651 1.16702 15.8201 1.01064 15.9751 0.906383C16.2335 0.802128 16.6468 0.75 17.1119 0.75C17.6286 0.75 17.9903 0.802128 18.1969 0.958511C18.4036 1.06277 18.507 1.21915 18.507 1.42766V7.94362H18.5586ZM23.1573 9.92447C22.9506 10.2894 22.6406 10.4979 22.2789 10.6021C21.9172 10.7064 21.5555 10.6543 21.1938 10.4457C20.8321 10.2372 20.6255 9.92447 20.5221 9.55957C20.4188 9.19468 20.4704 8.82979 20.6771 8.46489L23.8807 2.83511C23.9841 2.6266 24.1907 2.57447 24.3974 2.6266C24.6558 2.6266 25.0175 2.78298 25.4308 3.04362C25.8442 3.30426 26.1542 3.56489 26.3092 3.7734C26.4642 3.87766 26.4642 4.08617 26.4126 4.29468L23.1573 9.92447ZM26.1026 13.9904C25.7409 14.1989 25.3792 14.1989 25.0175 14.1468C24.6558 14.0426 24.3457 13.834 24.1391 13.4691C23.9324 13.1043 23.9324 12.7394 23.9841 12.3745C24.0874 12.0096 24.2941 11.6968 24.6558 11.4883L30.2879 8.20426C30.4946 8.1 30.7012 8.15213 30.8563 8.25638C31.0629 8.41277 31.3213 8.72553 31.5796 9.14255C31.838 9.55958 31.9413 9.92447 31.993 10.1851C31.993 10.3936 31.9413 10.6021 31.7863 10.7064L26.1026 13.9904ZM61.962 9.50745H64.6489C64.7522 9.50745 64.8556 9.55958 64.8556 9.66383L67.5424 16.5968L70.126 9.66383C70.1776 9.55958 70.281 9.50745 70.3327 9.50745H72.9679C73.1745 9.50745 73.2779 9.71596 73.1745 9.82021L66.5607 25.0936C66.509 25.1979 66.4057 25.25 66.354 25.25H64.0288C63.8738 25.25 63.7188 25.0415 63.8222 24.9372L66.0957 19.6202L61.652 9.87234C61.652 9.66383 61.807 9.50745 61.962 9.50745ZM101.903 11.0713V9.76808C101.903 9.6117 102.007 9.50745 102.162 9.50745H104.539C104.694 9.50745 104.797 9.6117 104.797 9.76808V20.1415C104.797 20.2979 104.694 20.4021 104.539 20.4021H102.162C102.007 20.4021 101.903 20.2979 101.903 20.1415V18.7862C101.387 19.5681 100.25 20.6106 98.4415 20.6106C94.9279 20.6106 93.1194 17.9 93.1194 14.9287C93.1194 11.0191 95.8063 9.29894 98.3382 9.29894C99.9916 9.24681 101.18 10.0809 101.903 11.0713ZM96.013 14.9287C96.013 16.8053 97.1497 18.2128 98.9582 18.2128C100.767 18.2128 101.955 16.9617 101.955 15.033C101.955 13.1043 100.818 11.6447 98.8549 11.6447C97.0464 11.6447 96.013 13.1043 96.013 14.9287ZM106.915 20.0894V9.76808C106.915 9.6117 107.019 9.50745 107.174 9.50745H109.551C109.706 9.50745 109.809 9.6117 109.809 9.76808V11.1755C110.377 10.1851 111.411 9.29894 113.219 9.29894C115.079 9.29894 117.146 10.2372 117.146 14.4074V20.0894C117.146 20.2457 117.043 20.35 116.888 20.35H114.511C114.356 20.35 114.253 20.2457 114.253 20.0894V14.4596C114.253 13.4691 113.994 11.6968 112.238 11.6968C110.481 11.6968 109.809 13.2606 109.809 14.7202V20.0894C109.809 20.2457 109.706 20.35 109.551 20.35H107.174C107.019 20.35 106.915 20.2457 106.915 20.0894ZM119.161 20.0894V9.76808C119.161 9.6117 119.265 9.50745 119.42 9.50745H121.797C121.952 9.50745 122.055 9.6117 122.055 9.76808V11.1755C122.623 10.1851 123.657 9.29894 125.465 9.29894C127.325 9.29894 129.392 10.2372 129.392 14.4074V20.0894C129.392 20.2457 129.289 20.35 129.134 20.35H126.757C126.602 20.35 126.499 20.2457 126.499 20.0894V14.4596C126.499 13.4691 126.24 11.6968 124.484 11.6968C122.727 11.6968 122.055 13.2606 122.055 14.7202V20.0894C122.055 20.2457 121.952 20.35 121.797 20.35H119.42C119.265 20.35 119.161 20.2457 119.161 20.0894ZM144.273 9.50745H146.599C146.754 9.50745 146.857 9.6117 146.857 9.76808V11.9053C147.322 9.76808 149.13 9.0383 150.474 9.35106C150.577 9.35106 150.681 9.45532 150.681 9.55957V11.9053C150.681 12.0617 150.526 12.166 150.371 12.1138C147.942 11.6447 146.96 12.9479 146.96 14.8245V20.0372C146.96 20.1936 146.857 20.2979 146.702 20.2979H144.273C144.118 20.2979 144.015 20.1936 144.015 20.0372V9.76808C144.015 9.6117 144.17 9.50745 144.273 9.50745ZM46.0991 11.8532C45.3757 11.5926 44.9624 11.4362 44.3423 11.2798C43.7223 11.0713 42.6888 10.4457 42.6888 9.50745C42.6888 8.56915 43.3606 7.94362 44.704 7.94362C45.9441 7.94362 46.6158 8.51702 47.0292 9.50745C47.0809 9.66383 47.2359 9.71596 47.3909 9.6117L49.3544 8.46489C49.4577 8.41277 49.5094 8.25638 49.4577 8.15213C48.8893 6.84894 47.4942 5.23298 44.7557 5.23298C41.7071 5.23298 39.7953 7.05745 39.7953 9.45532C39.7953 11.8532 41.3454 13.1043 43.4639 13.834C44.239 14.0947 44.549 14.1989 45.2207 14.4074C46.4608 14.8245 47.0292 15.3979 47.0292 16.1798C47.0292 16.9617 46.5125 17.9 44.6007 17.9C42.8439 17.9 42.1721 16.9617 41.8104 16.0755C41.7588 15.9191 41.6038 15.867 41.4487 15.9713L39.3819 17.1702C39.2786 17.2223 39.2269 17.3787 39.2786 17.483C40.0536 19.4638 42.2238 20.6106 44.6523 20.6106C47.4942 20.6106 49.9227 19.1511 49.9227 16.1798C49.9227 13.2085 46.8742 12.1138 46.0991 11.8532ZM61.8587 17.5351C61.807 17.4309 61.652 17.3787 61.497 17.4309C60.5669 18.1085 59.4818 18.1085 58.6551 16.8574C57.9834 15.7628 57.105 14.4596 57.105 14.4596L60.7219 9.92447C60.8769 9.76809 60.7219 9.50745 60.5152 9.50745H57.6733C57.57 9.50745 57.5183 9.55957 57.4667 9.6117L54.3147 13.9383V5.23298C54.3147 5.0766 54.2114 4.97234 54.0564 4.97234H51.7829C51.6279 4.97234 51.5245 5.0766 51.5245 5.23298V20.1415C51.5245 20.2979 51.6279 20.4021 51.7829 20.4021H54.2114C54.3664 20.4021 54.4698 20.2979 54.4698 20.1415V15.2936C54.4698 15.2936 56.0715 17.8479 56.6916 18.7862C57.5183 20.0894 58.6551 20.6106 59.9468 20.6106C61.1353 20.6106 61.9103 20.2979 62.7887 19.4117C62.8921 19.3074 62.8921 19.2032 62.8404 19.0989L61.8587 17.5351ZM79.0133 14.0947C78.2383 13.834 77.9799 13.7298 77.4115 13.5213C76.8432 13.3128 76.3265 13 76.3265 12.5309C76.3265 12.0617 76.7398 11.5404 77.6182 11.5404C78.3933 11.5404 78.8583 11.8532 79.1167 12.3745C79.1683 12.5309 79.3234 12.5309 79.4267 12.4787L81.1318 11.4883C81.2352 11.4362 81.2868 11.2798 81.2352 11.1755C80.7701 10.3415 79.8917 9.35106 77.6699 9.35106C74.983 9.35106 73.5879 10.9149 73.5879 12.6351C73.5879 14.3553 74.983 15.1894 76.2748 15.7106C77.7216 16.284 77.8249 16.3362 78.0316 16.3883C78.4966 16.5968 79.0133 16.8574 79.0133 17.3787C79.0133 17.9 78.445 18.3691 77.5149 18.3691C76.6882 18.3691 75.7064 18.0043 75.3447 17.0138C75.293 16.8574 75.138 16.8053 74.983 16.9096L73.2779 17.9C73.1745 17.9521 73.1229 18.1085 73.1745 18.2128C73.6912 19.516 75.138 20.6628 77.5149 20.6628C80.0984 20.6628 81.8036 19.3074 81.8036 17.3266C81.8036 15.3457 80.4601 14.616 79.0133 14.0947ZM88.6757 11.8532C89.7608 11.8532 90.5359 12.166 91.2593 12.7394C91.3626 12.8436 91.5176 12.7915 91.621 12.6872L92.6027 10.967C92.6544 10.8628 92.6544 10.7064 92.4994 10.6543C91.466 9.9766 90.2259 9.29894 88.4691 9.29894C86.7639 9.29894 85.2138 9.76809 84.0771 10.9149C82.9403 12.0617 82.4236 13.417 82.4236 14.9809C82.4236 16.9096 83.1987 18.1606 84.0771 18.9947C84.9555 19.8809 86.5056 20.6106 88.4691 20.6106C90.2259 20.6106 91.5693 19.8809 92.4994 19.2553C92.6027 19.2032 92.6544 19.0468 92.551 18.9426L91.5693 17.2223C91.5176 17.1181 91.3626 17.066 91.2076 17.1181C90.5876 17.5872 89.6575 18.0043 88.6241 18.0043C87.4357 18.0043 85.3172 17.3266 85.3172 14.9287C85.3172 12.5309 87.539 11.8532 88.6757 11.8532ZM137.195 18.1606C136.213 18.1606 135.334 17.9521 134.663 17.3787C133.991 16.8053 133.681 16.284 133.681 15.6585H142.207C142.362 15.6585 142.465 15.5543 142.465 15.3979C142.413 12.8436 141.587 11.6447 140.811 10.8106C139.985 9.97659 138.59 9.19468 136.729 9.19468C134.869 9.19468 133.474 9.87234 132.492 10.8628C131.511 11.8532 130.787 13.0521 130.787 14.9287C130.787 16.8053 131.511 18.0043 132.441 18.9426C133.371 19.8809 134.818 20.5585 136.936 20.5585C138.951 20.5585 140.656 19.8287 141.845 18.4213C141.948 18.317 141.897 18.1085 141.793 18.0564L140.088 17.066C139.985 17.0138 139.881 17.0138 139.83 17.1181C139.055 17.9 137.97 18.1606 137.195 18.1606ZM136.729 11.5926C138.073 11.5926 139.365 12.4266 139.571 13.9383H133.836C134.198 12.3223 135.386 11.5926 136.729 11.5926Z" fill="#0770E3"/>
</g>
<defs>
<clipPath id="clip0_6084_8996">
<rect width="150" height="24.5" fill="white" transform="translate(0.628906 0.75)"/>
</clipPath>
</defs>
</svg>
